<svg xmlns="http://www.w3.org/2000/svg" viewBox="0 0 800 1131" font-family="Helvetica, Arial, sans-serif">
<rect width="800" height="1131" fill="#ffffff"/>
<rect x="20" y="20" width="760" height="1091" rx="22" fill="none" stroke="#d7dbe0" stroke-width="2"/>
<text x="400.0" y="80" fill="#14161a" font-size="48" font-weight="700" text-anchor="middle">Zeitspiegel</text>
<text x="400.0" y="110" fill="#2f6db0" font-size="16" font-weight="600" text-anchor="middle" letter-spacing="3">THE DELAYED DANCE MIRROR</text>
<text x="400.0" y="156" fill="#14161a" font-size="24" font-weight="600" text-anchor="middle">Scan these two — in order:</text>
<circle cx="240.0" cy="210" r="26" fill="#2f6db0"/><text x="240.0" y="210" fill="#fff" font-size="29" font-weight="700" text-anchor="middle" dominant-baseline="central">1</text>
<circle cx="560.0" cy="210" r="26" fill="#2f6db0"/><text x="560.0" y="210" fill="#fff" font-size="29" font-weight="700" text-anchor="middle" dominant-baseline="central">2</text>
<line x1="290.0" y1="210" x2="496.0" y2="210" stroke="#2f6db0" stroke-width="6" stroke-linecap="round"/><path d="M 496.0 200 L 510.0 210 L 496.0 220 Z" fill="#2f6db0"/>
<text x="240.0" y="270" fill="#14161a" font-size="22" font-weight="700" text-anchor="middle">Join the Wi-Fi</text>
<text x="560.0" y="270" fill="#14161a" font-size="22" font-weight="700" text-anchor="middle">Open the controls</text>
<rect x="110.0" y="290.0" width="260.0" height="260.0" fill="#ffffff"/>
<rect x="125.76" y="305.76" width="55.15" height="7.88" fill="#000"/>
<rect x="188.79" y="305.76" width="23.64" height="7.88" fill="#000"/>
<rect x="220.30" y="305.76" width="15.76" height="7.88" fill="#000"/>
<rect x="243.94" y="305.76" width="23.64" height="7.88" fill="#000"/>
<rect x="283.33" y="305.76" width="7.88" height="7.88" fill="#000"/>
<rect x="299.09" y="305.76" width="55.15" height="7.88" fill="#000"/>
<rect x="125.76" y="313.64" width="7.88" height="7.88" fill="#000"/>
<rect x="173.03" y="313.64" width="7.88" height="7.88" fill="#000"/>
<rect x="188.79" y="313.64" width="15.76" height="7.88" fill="#000"/>
<rect x="212.42" y="313.64" width="23.64" height="7.88" fill="#000"/>
<rect x="243.94" y="313.64" width="15.76" height="7.88" fill="#000"/>
<rect x="283.33" y="313.64" width="7.88" height="7.88" fill="#000"/>
<rect x="299.09" y="313.64" width="7.88" height="7.88" fill="#000"/>
<rect x="346.36" y="313.64" width="7.88" height="7.88" fill="#000"/>
<rect x="125.76" y="321.52" width="7.88" height="7.88" fill="#000"/>
<rect x="141.52" y="321.52" width="23.64" height="7.88" fill="#000"/>
<rect x="173.03" y="321.52" width="7.88" height="7.88" fill="#000"/>
<rect x="204.55" y="321.52" width="7.88" height="7.88" fill="#000"/>
<rect x="236.06" y="321.52" width="7.88" height="7.88" fill="#000"/>
<rect x="251.82" y="321.52" width="7.88" height="7.88" fill="#000"/>
<rect x="267.58" y="321.52" width="15.76" height="7.88" fill="#000"/>
<rect x="299.09" y="321.52" width="7.88" height="7.88" fill="#000"/>
<rect x="314.85" y="321.52" width="23.64" height="7.88" fill="#000"/>
<rect x="346.36" y="321.52" width="7.88" height="7.88" fill="#000"/>
<rect x="125.76" y="329.39" width="7.88" height="7.88" fill="#000"/>
<rect x="141.52" y="329.39" width="23.64" height="7.88" fill="#000"/>
<rect x="173.03" y="329.39" width="7.88" height="7.88" fill="#000"/>
<rect x="196.67" y="329.39" width="23.64" height="7.88" fill="#000"/>
<rect x="228.18" y="329.39" width="23.64" height="7.88" fill="#000"/>
<rect x="259.70" y="329.39" width="7.88" height="7.88" fill="#000"/>
<rect x="299.09" y="329.39" width="7.88" height="7.88" fill="#000"/>
<rect x="314.85" y="329.39" width="23.64" height="7.88" fill="#000"/>
<rect x="346.36" y="329.39" width="7.88" height="7.88" fill="#000"/>
<rect x="125.76" y="337.27" width="7.88" height="7.88" fill="#000"/>
<rect x="141.52" y="337.27" width="23.64" height="7.88" fill="#000"/>
<rect x="173.03" y="337.27" width="7.88" height="7.88" fill="#000"/>
<rect x="204.55" y="337.27" width="15.76" height="7.88" fill="#000"/>
<rect x="228.18" y="337.27" width="7.88" height="7.88" fill="#000"/>
<rect x="243.94" y="337.27" width="7.88" height="7.88" fill="#000"/>
<rect x="259.70" y="337.27" width="7.88" height="7.88" fill="#000"/>
<rect x="275.45" y="337.27" width="15.76" height="7.88" fill="#000"/>
<rect x="299.09" y="337.27" width="7.88" height="7.88" fill="#000"/>
<rect x="314.85" y="337.27" width="23.64" height="7.88" fill="#000"/>
<rect x="346.36" y="337.27" width="7.88" height="7.88" fill="#000"/>
<rect x="125.76" y="345.15" width="7.88" height="7.88" fill="#000"/>
<rect x="173.03" y="345.15" width="7.88" height="7.88" fill="#000"/>
<rect x="196.67" y="345.15" width="15.76" height="7.88" fill="#000"/>
<rect x="228.18" y="345.15" width="7.88" height="7.88" fill="#000"/>
<rect x="243.94" y="345.15" width="31.52" height="7.88" fill="#000"/>
<rect x="283.33" y="345.15" width="7.88" height="7.88" fill="#000"/>
<rect x="299.09" y="345.15" width="7.88" height="7.88" fill="#000"/>
<rect x="346.36" y="345.15" width="7.88" height="7.88" fill="#000"/>
<rect x="125.76" y="353.03" width="55.15" height="7.88" fill="#000"/>
<rect x="188.79" y="353.03" width="7.88" height="7.88" fill="#000"/>
<rect x="204.55" y="353.03" width="7.88" height="7.88" fill="#000"/>
<rect x="220.30" y="353.03" width="7.88" height="7.88" fill="#000"/>
<rect x="236.06" y="353.03" width="7.88" height="7.88" fill="#000"/>
<rect x="251.82" y="353.03" width="7.88" height="7.88" fill="#000"/>
<rect x="267.58" y="353.03" width="7.88" height="7.88" fill="#000"/>
<rect x="283.33" y="353.03" width="7.88" height="7.88" fill="#000"/>
<rect x="299.09" y="353.03" width="55.15" height="7.88" fill="#000"/>
<rect x="196.67" y="360.91" width="15.76" height="7.88" fill="#000"/>
<rect x="228.18" y="360.91" width="7.88" height="7.88" fill="#000"/>
<rect x="243.94" y="360.91" width="15.76" height="7.88" fill="#000"/>
<rect x="133.64" y="368.79" width="7.88" height="7.88" fill="#000"/>
<rect x="173.03" y="368.79" width="55.15" height="7.88" fill="#000"/>
<rect x="236.06" y="368.79" width="15.76" height="7.88" fill="#000"/>
<rect x="259.70" y="368.79" width="39.39" height="7.88" fill="#000"/>
<rect x="338.48" y="368.79" width="15.76" height="7.88" fill="#000"/>
<rect x="133.64" y="376.67" width="7.88" height="7.88" fill="#000"/>
<rect x="149.39" y="376.67" width="7.88" height="7.88" fill="#000"/>
<rect x="180.91" y="376.67" width="31.52" height="7.88" fill="#000"/>
<rect x="220.30" y="376.67" width="7.88" height="7.88" fill="#000"/>
<rect x="236.06" y="376.67" width="15.76" height="7.88" fill="#000"/>
<rect x="275.45" y="376.67" width="7.88" height="7.88" fill="#000"/>
<rect x="306.97" y="376.67" width="23.64" height="7.88" fill="#000"/>
<rect x="346.36" y="376.67" width="7.88" height="7.88" fill="#000"/>
<rect x="125.76" y="384.55" width="15.76" height="7.88" fill="#000"/>
<rect x="157.27" y="384.55" width="31.52" height="7.88" fill="#000"/>
<rect x="196.67" y="384.55" width="15.76" height="7.88" fill="#000"/>
<rect x="220.30" y="384.55" width="15.76" height="7.88" fill="#000"/>
<rect x="243.94" y="384.55" width="7.88" height="7.88" fill="#000"/>
<rect x="259.70" y="384.55" width="15.76" height="7.88" fill="#000"/>
<rect x="283.33" y="384.55" width="15.76" height="7.88" fill="#000"/>
<rect x="125.76" y="392.42" width="31.52" height="7.88" fill="#000"/>
<rect x="165.15" y="392.42" width="7.88" height="7.88" fill="#000"/>
<rect x="180.91" y="392.42" width="39.39" height="7.88" fill="#000"/>
<rect x="228.18" y="392.42" width="15.76" height="7.88" fill="#000"/>
<rect x="251.82" y="392.42" width="7.88" height="7.88" fill="#000"/>
<rect x="275.45" y="392.42" width="7.88" height="7.88" fill="#000"/>
<rect x="291.21" y="392.42" width="23.64" height="7.88" fill="#000"/>
<rect x="338.48" y="392.42" width="15.76" height="7.88" fill="#000"/>
<rect x="141.52" y="400.30" width="23.64" height="7.88" fill="#000"/>
<rect x="173.03" y="400.30" width="23.64" height="7.88" fill="#000"/>
<rect x="204.55" y="400.30" width="7.88" height="7.88" fill="#000"/>
<rect x="236.06" y="400.30" width="15.76" height="7.88" fill="#000"/>
<rect x="275.45" y="400.30" width="31.52" height="7.88" fill="#000"/>
<rect x="314.85" y="400.30" width="7.88" height="7.88" fill="#000"/>
<rect x="346.36" y="400.30" width="7.88" height="7.88" fill="#000"/>
<rect x="125.76" y="408.18" width="7.88" height="7.88" fill="#000"/>
<rect x="165.15" y="408.18" width="7.88" height="7.88" fill="#000"/>
<rect x="196.67" y="408.18" width="7.88" height="7.88" fill="#000"/>
<rect x="220.30" y="408.18" width="7.88" height="7.88" fill="#000"/>
<rect x="236.06" y="408.18" width="7.88" height="7.88" fill="#000"/>
<rect x="259.70" y="408.18" width="7.88" height="7.88" fill="#000"/>
<rect x="275.45" y="408.18" width="47.27" height="7.88" fill="#000"/>
<rect x="330.61" y="408.18" width="7.88" height="7.88" fill="#000"/>
<rect x="346.36" y="408.18" width="7.88" height="7.88" fill="#000"/>
<rect x="133.64" y="416.06" width="7.88" height="7.88" fill="#000"/>
<rect x="149.39" y="416.06" width="7.88" height="7.88" fill="#000"/>
<rect x="173.03" y="416.06" width="23.64" height="7.88" fill="#000"/>
<rect x="204.55" y="416.06" width="47.27" height="7.88" fill="#000"/>
<rect x="259.70" y="416.06" width="15.76" height="7.88" fill="#000"/>
<rect x="283.33" y="416.06" width="7.88" height="7.88" fill="#000"/>
<rect x="299.09" y="416.06" width="7.88" height="7.88" fill="#000"/>
<rect x="322.73" y="416.06" width="7.88" height="7.88" fill="#000"/>
<rect x="125.76" y="423.94" width="15.76" height="7.88" fill="#000"/>
<rect x="149.39" y="423.94" width="15.76" height="7.88" fill="#000"/>
<rect x="220.30" y="423.94" width="7.88" height="7.88" fill="#000"/>
<rect x="236.06" y="423.94" width="7.88" height="7.88" fill="#000"/>
<rect x="251.82" y="423.94" width="7.88" height="7.88" fill="#000"/>
<rect x="291.21" y="423.94" width="7.88" height="7.88" fill="#000"/>
<rect x="322.73" y="423.94" width="31.52" height="7.88" fill="#000"/>
<rect x="125.76" y="431.82" width="31.52" height="7.88" fill="#000"/>
<rect x="173.03" y="431.82" width="31.52" height="7.88" fill="#000"/>
<rect x="212.42" y="431.82" width="15.76" height="7.88" fill="#000"/>
<rect x="251.82" y="431.82" width="7.88" height="7.88" fill="#000"/>
<rect x="267.58" y="431.82" width="7.88" height="7.88" fill="#000"/>
<rect x="283.33" y="431.82" width="7.88" height="7.88" fill="#000"/>
<rect x="125.76" y="439.70" width="7.88" height="7.88" fill="#000"/>
<rect x="149.39" y="439.70" width="15.76" height="7.88" fill="#000"/>
<rect x="188.79" y="439.70" width="7.88" height="7.88" fill="#000"/>
<rect x="220.30" y="439.70" width="23.64" height="7.88" fill="#000"/>
<rect x="267.58" y="439.70" width="55.15" height="7.88" fill="#000"/>
<rect x="330.61" y="439.70" width="15.76" height="7.88" fill="#000"/>
<rect x="125.76" y="447.58" width="15.76" height="7.88" fill="#000"/>
<rect x="165.15" y="447.58" width="15.76" height="7.88" fill="#000"/>
<rect x="196.67" y="447.58" width="7.88" height="7.88" fill="#000"/>
<rect x="220.30" y="447.58" width="15.76" height="7.88" fill="#000"/>
<rect x="243.94" y="447.58" width="7.88" height="7.88" fill="#000"/>
<rect x="259.70" y="447.58" width="23.64" height="7.88" fill="#000"/>
<rect x="291.21" y="447.58" width="7.88" height="7.88" fill="#000"/>
<rect x="306.97" y="447.58" width="7.88" height="7.88" fill="#000"/>
<rect x="346.36" y="447.58" width="7.88" height="7.88" fill="#000"/>
<rect x="125.76" y="455.45" width="7.88" height="7.88" fill="#000"/>
<rect x="141.52" y="455.45" width="7.88" height="7.88" fill="#000"/>
<rect x="157.27" y="455.45" width="15.76" height="7.88" fill="#000"/>
<rect x="188.79" y="455.45" width="47.27" height="7.88" fill="#000"/>
<rect x="267.58" y="455.45" width="7.88" height="7.88" fill="#000"/>
<rect x="299.09" y="455.45" width="7.88" height="7.88" fill="#000"/>
<rect x="322.73" y="455.45" width="7.88" height="7.88" fill="#000"/>
<rect x="338.48" y="455.45" width="7.88" height="7.88" fill="#000"/>
<rect x="125.76" y="463.33" width="7.88" height="7.88" fill="#000"/>
<rect x="141.52" y="463.33" width="23.64" height="7.88" fill="#000"/>
<rect x="173.03" y="463.33" width="7.88" height="7.88" fill="#000"/>
<rect x="204.55" y="463.33" width="7.88" height="7.88" fill="#000"/>
<rect x="220.30" y="463.33" width="7.88" height="7.88" fill="#000"/>
<rect x="236.06" y="463.33" width="15.76" height="7.88" fill="#000"/>
<rect x="259.70" y="463.33" width="7.88" height="7.88" fill="#000"/>
<rect x="283.33" y="463.33" width="47.27" height="7.88" fill="#000"/>
<rect x="346.36" y="463.33" width="7.88" height="7.88" fill="#000"/>
<rect x="188.79" y="471.21" width="7.88" height="7.88" fill="#000"/>
<rect x="204.55" y="471.21" width="7.88" height="7.88" fill="#000"/>
<rect x="228.18" y="471.21" width="23.64" height="7.88" fill="#000"/>
<rect x="267.58" y="471.21" width="7.88" height="7.88" fill="#000"/>
<rect x="283.33" y="471.21" width="7.88" height="7.88" fill="#000"/>
<rect x="314.85" y="471.21" width="23.64" height="7.88" fill="#000"/>
<rect x="125.76" y="479.09" width="55.15" height="7.88" fill="#000"/>
<rect x="188.79" y="479.09" width="31.52" height="7.88" fill="#000"/>
<rect x="243.94" y="479.09" width="15.76" height="7.88" fill="#000"/>
<rect x="267.58" y="479.09" width="23.64" height="7.88" fill="#000"/>
<rect x="299.09" y="479.09" width="7.88" height="7.88" fill="#000"/>
<rect x="314.85" y="479.09" width="7.88" height="7.88" fill="#000"/>
<rect x="330.61" y="479.09" width="7.88" height="7.88" fill="#000"/>
<rect x="125.76" y="486.97" width="7.88" height="7.88" fill="#000"/>
<rect x="173.03" y="486.97" width="7.88" height="7.88" fill="#000"/>
<rect x="196.67" y="486.97" width="7.88" height="7.88" fill="#000"/>
<rect x="220.30" y="486.97" width="7.88" height="7.88" fill="#000"/>
<rect x="251.82" y="486.97" width="7.88" height="7.88" fill="#000"/>
<rect x="267.58" y="486.97" width="23.64" height="7.88" fill="#000"/>
<rect x="314.85" y="486.97" width="15.76" height="7.88" fill="#000"/>
<rect x="338.48" y="486.97" width="15.76" height="7.88" fill="#000"/>
<rect x="125.76" y="494.85" width="7.88" height="7.88" fill="#000"/>
<rect x="141.52" y="494.85" width="23.64" height="7.88" fill="#000"/>
<rect x="173.03" y="494.85" width="7.88" height="7.88" fill="#000"/>
<rect x="196.67" y="494.85" width="7.88" height="7.88" fill="#000"/>
<rect x="212.42" y="494.85" width="7.88" height="7.88" fill="#000"/>
<rect x="228.18" y="494.85" width="7.88" height="7.88" fill="#000"/>
<rect x="243.94" y="494.85" width="94.55" height="7.88" fill="#000"/>
<rect x="346.36" y="494.85" width="7.88" height="7.88" fill="#000"/>
<rect x="125.76" y="502.73" width="7.88" height="7.88" fill="#000"/>
<rect x="141.52" y="502.73" width="23.64" height="7.88" fill="#000"/>
<rect x="173.03" y="502.73" width="7.88" height="7.88" fill="#000"/>
<rect x="251.82" y="502.73" width="23.64" height="7.88" fill="#000"/>
<rect x="283.33" y="502.73" width="15.76" height="7.88" fill="#000"/>
<rect x="306.97" y="502.73" width="7.88" height="7.88" fill="#000"/>
<rect x="322.73" y="502.73" width="7.88" height="7.88" fill="#000"/>
<rect x="338.48" y="502.73" width="7.88" height="7.88" fill="#000"/>
<rect x="125.76" y="510.61" width="7.88" height="7.88" fill="#000"/>
<rect x="141.52" y="510.61" width="23.64" height="7.88" fill="#000"/>
<rect x="173.03" y="510.61" width="7.88" height="7.88" fill="#000"/>
<rect x="204.55" y="510.61" width="7.88" height="7.88" fill="#000"/>
<rect x="228.18" y="510.61" width="15.76" height="7.88" fill="#000"/>
<rect x="267.58" y="510.61" width="7.88" height="7.88" fill="#000"/>
<rect x="283.33" y="510.61" width="7.88" height="7.88" fill="#000"/>
<rect x="299.09" y="510.61" width="7.88" height="7.88" fill="#000"/>
<rect x="314.85" y="510.61" width="7.88" height="7.88" fill="#000"/>
<rect x="338.48" y="510.61" width="7.88" height="7.88" fill="#000"/>
<rect x="125.76" y="518.48" width="7.88" height="7.88" fill="#000"/>
<rect x="173.03" y="518.48" width="7.88" height="7.88" fill="#000"/>
<rect x="188.79" y="518.48" width="7.88" height="7.88" fill="#000"/>
<rect x="204.55" y="518.48" width="15.76" height="7.88" fill="#000"/>
<rect x="236.06" y="518.48" width="15.76" height="7.88" fill="#000"/>
<rect x="299.09" y="518.48" width="23.64" height="7.88" fill="#000"/>
<rect x="330.61" y="518.48" width="7.88" height="7.88" fill="#000"/>
<rect x="346.36" y="518.48" width="7.88" height="7.88" fill="#000"/>
<rect x="125.76" y="526.36" width="55.15" height="7.88" fill="#000"/>
<rect x="196.67" y="526.36" width="7.88" height="7.88" fill="#000"/>
<rect x="220.30" y="526.36" width="15.76" height="7.88" fill="#000"/>
<rect x="259.70" y="526.36" width="7.88" height="7.88" fill="#000"/>
<rect x="275.45" y="526.36" width="7.88" height="7.88" fill="#000"/>
<rect x="291.21" y="526.36" width="7.88" height="7.88" fill="#000"/>
<rect x="322.73" y="526.36" width="15.76" height="7.88" fill="#000"/>
<rect x="430.0" y="290.0" width="260.0" height="260.0" fill="#ffffff"/>
<rect x="447.93" y="307.93" width="62.76" height="8.97" fill="#000"/>
<rect x="519.66" y="307.93" width="35.86" height="8.97" fill="#000"/>
<rect x="564.48" y="307.93" width="8.97" height="8.97" fill="#000"/>
<rect x="591.38" y="307.93" width="8.97" height="8.97" fill="#000"/>
<rect x="609.31" y="307.93" width="62.76" height="8.97" fill="#000"/>
<rect x="447.93" y="316.90" width="8.97" height="8.97" fill="#000"/>
<rect x="501.72" y="316.90" width="8.97" height="8.97" fill="#000"/>
<rect x="519.66" y="316.90" width="8.97" height="8.97" fill="#000"/>
<rect x="546.55" y="316.90" width="17.93" height="8.97" fill="#000"/>
<rect x="591.38" y="316.90" width="8.97" height="8.97" fill="#000"/>
<rect x="609.31" y="316.90" width="8.97" height="8.97" fill="#000"/>
<rect x="663.10" y="316.90" width="8.97" height="8.97" fill="#000"/>
<rect x="447.93" y="325.86" width="8.97" height="8.97" fill="#000"/>
<rect x="465.86" y="325.86" width="26.90" height="8.97" fill="#000"/>
<rect x="501.72" y="325.86" width="8.97" height="8.97" fill="#000"/>
<rect x="528.62" y="325.86" width="26.90" height="8.97" fill="#000"/>
<rect x="564.48" y="325.86" width="8.97" height="8.97" fill="#000"/>
<rect x="609.31" y="325.86" width="8.97" height="8.97" fill="#000"/>
<rect x="627.24" y="325.86" width="26.90" height="8.97" fill="#000"/>
<rect x="663.10" y="325.86" width="8.97" height="8.97" fill="#000"/>
<rect x="447.93" y="334.83" width="8.97" height="8.97" fill="#000"/>
<rect x="465.86" y="334.83" width="26.90" height="8.97" fill="#000"/>
<rect x="501.72" y="334.83" width="8.97" height="8.97" fill="#000"/>
<rect x="519.66" y="334.83" width="8.97" height="8.97" fill="#000"/>
<rect x="564.48" y="334.83" width="8.97" height="8.97" fill="#000"/>
<rect x="582.41" y="334.83" width="8.97" height="8.97" fill="#000"/>
<rect x="609.31" y="334.83" width="8.97" height="8.97" fill="#000"/>
<rect x="627.24" y="334.83" width="26.90" height="8.97" fill="#000"/>
<rect x="663.10" y="334.83" width="8.97" height="8.97" fill="#000"/>
<rect x="447.93" y="343.79" width="8.97" height="8.97" fill="#000"/>
<rect x="465.86" y="343.79" width="26.90" height="8.97" fill="#000"/>
<rect x="501.72" y="343.79" width="8.97" height="8.97" fill="#000"/>
<rect x="537.59" y="343.79" width="8.97" height="8.97" fill="#000"/>
<rect x="555.52" y="343.79" width="44.83" height="8.97" fill="#000"/>
<rect x="609.31" y="343.79" width="8.97" height="8.97" fill="#000"/>
<rect x="627.24" y="343.79" width="26.90" height="8.97" fill="#000"/>
<rect x="663.10" y="343.79" width="8.97" height="8.97" fill="#000"/>
<rect x="447.93" y="352.76" width="8.97" height="8.97" fill="#000"/>
<rect x="501.72" y="352.76" width="8.97" height="8.97" fill="#000"/>
<rect x="528.62" y="352.76" width="8.97" height="8.97" fill="#000"/>
<rect x="546.55" y="352.76" width="8.97" height="8.97" fill="#000"/>
<rect x="573.45" y="352.76" width="8.97" height="8.97" fill="#000"/>
<rect x="609.31" y="352.76" width="8.97" height="8.97" fill="#000"/>
<rect x="663.10" y="352.76" width="8.97" height="8.97" fill="#000"/>
<rect x="447.93" y="361.72" width="62.76" height="8.97" fill="#000"/>
<rect x="519.66" y="361.72" width="8.97" height="8.97" fill="#000"/>
<rect x="537.59" y="361.72" width="8.97" height="8.97" fill="#000"/>
<rect x="555.52" y="361.72" width="8.97" height="8.97" fill="#000"/>
<rect x="573.45" y="361.72" width="8.97" height="8.97" fill="#000"/>
<rect x="591.38" y="361.72" width="8.97" height="8.97" fill="#000"/>
<rect x="609.31" y="361.72" width="62.76" height="8.97" fill="#000"/>
<rect x="519.66" y="370.69" width="8.97" height="8.97" fill="#000"/>
<rect x="537.59" y="370.69" width="26.90" height="8.97" fill="#000"/>
<rect x="573.45" y="370.69" width="26.90" height="8.97" fill="#000"/>
<rect x="447.93" y="379.66" width="8.97" height="8.97" fill="#000"/>
<rect x="465.86" y="379.66" width="17.93" height="8.97" fill="#000"/>
<rect x="492.76" y="379.66" width="26.90" height="8.97" fill="#000"/>
<rect x="555.52" y="379.66" width="8.97" height="8.97" fill="#000"/>
<rect x="573.45" y="379.66" width="8.97" height="8.97" fill="#000"/>
<rect x="591.38" y="379.66" width="8.97" height="8.97" fill="#000"/>
<rect x="609.31" y="379.66" width="8.97" height="8.97" fill="#000"/>
<rect x="636.21" y="379.66" width="8.97" height="8.97" fill="#000"/>
<rect x="654.14" y="379.66" width="17.93" height="8.97" fill="#000"/>
<rect x="456.90" y="388.62" width="17.93" height="8.97" fill="#000"/>
<rect x="483.79" y="388.62" width="17.93" height="8.97" fill="#000"/>
<rect x="510.69" y="388.62" width="8.97" height="8.97" fill="#000"/>
<rect x="528.62" y="388.62" width="26.90" height="8.97" fill="#000"/>
<rect x="564.48" y="388.62" width="8.97" height="8.97" fill="#000"/>
<rect x="591.38" y="388.62" width="8.97" height="8.97" fill="#000"/>
<rect x="618.28" y="388.62" width="8.97" height="8.97" fill="#000"/>
<rect x="654.14" y="388.62" width="8.97" height="8.97" fill="#000"/>
<rect x="447.93" y="397.59" width="8.97" height="8.97" fill="#000"/>
<rect x="474.83" y="397.59" width="44.83" height="8.97" fill="#000"/>
<rect x="537.59" y="397.59" width="8.97" height="8.97" fill="#000"/>
<rect x="555.52" y="397.59" width="8.97" height="8.97" fill="#000"/>
<rect x="591.38" y="397.59" width="44.83" height="8.97" fill="#000"/>
<rect x="447.93" y="406.55" width="8.97" height="8.97" fill="#000"/>
<rect x="474.83" y="406.55" width="8.97" height="8.97" fill="#000"/>
<rect x="492.76" y="406.55" width="8.97" height="8.97" fill="#000"/>
<rect x="510.69" y="406.55" width="8.97" height="8.97" fill="#000"/>
<rect x="528.62" y="406.55" width="8.97" height="8.97" fill="#000"/>
<rect x="555.52" y="406.55" width="17.93" height="8.97" fill="#000"/>
<rect x="600.34" y="406.55" width="8.97" height="8.97" fill="#000"/>
<rect x="636.21" y="406.55" width="17.93" height="8.97" fill="#000"/>
<rect x="447.93" y="415.52" width="17.93" height="8.97" fill="#000"/>
<rect x="483.79" y="415.52" width="35.86" height="8.97" fill="#000"/>
<rect x="546.55" y="415.52" width="44.83" height="8.97" fill="#000"/>
<rect x="600.34" y="415.52" width="17.93" height="8.97" fill="#000"/>
<rect x="627.24" y="415.52" width="8.97" height="8.97" fill="#000"/>
<rect x="645.17" y="415.52" width="26.90" height="8.97" fill="#000"/>
<rect x="456.90" y="424.48" width="17.93" height="8.97" fill="#000"/>
<rect x="483.79" y="424.48" width="8.97" height="8.97" fill="#000"/>
<rect x="528.62" y="424.48" width="71.72" height="8.97" fill="#000"/>
<rect x="609.31" y="424.48" width="26.90" height="8.97" fill="#000"/>
<rect x="663.10" y="424.48" width="8.97" height="8.97" fill="#000"/>
<rect x="456.90" y="433.45" width="8.97" height="8.97" fill="#000"/>
<rect x="474.83" y="433.45" width="8.97" height="8.97" fill="#000"/>
<rect x="501.72" y="433.45" width="8.97" height="8.97" fill="#000"/>
<rect x="519.66" y="433.45" width="17.93" height="8.97" fill="#000"/>
<rect x="546.55" y="433.45" width="8.97" height="8.97" fill="#000"/>
<rect x="573.45" y="433.45" width="8.97" height="8.97" fill="#000"/>
<rect x="600.34" y="433.45" width="8.97" height="8.97" fill="#000"/>
<rect x="618.28" y="433.45" width="17.93" height="8.97" fill="#000"/>
<rect x="645.17" y="433.45" width="17.93" height="8.97" fill="#000"/>
<rect x="447.93" y="442.41" width="8.97" height="8.97" fill="#000"/>
<rect x="483.79" y="442.41" width="8.97" height="8.97" fill="#000"/>
<rect x="510.69" y="442.41" width="8.97" height="8.97" fill="#000"/>
<rect x="546.55" y="442.41" width="8.97" height="8.97" fill="#000"/>
<rect x="573.45" y="442.41" width="17.93" height="8.97" fill="#000"/>
<rect x="609.31" y="442.41" width="8.97" height="8.97" fill="#000"/>
<rect x="627.24" y="442.41" width="17.93" height="8.97" fill="#000"/>
<rect x="663.10" y="442.41" width="8.97" height="8.97" fill="#000"/>
<rect x="465.86" y="451.38" width="8.97" height="8.97" fill="#000"/>
<rect x="483.79" y="451.38" width="53.79" height="8.97" fill="#000"/>
<rect x="564.48" y="451.38" width="8.97" height="8.97" fill="#000"/>
<rect x="582.41" y="451.38" width="89.66" height="8.97" fill="#000"/>
<rect x="519.66" y="460.34" width="17.93" height="8.97" fill="#000"/>
<rect x="564.48" y="460.34" width="8.97" height="8.97" fill="#000"/>
<rect x="591.38" y="460.34" width="8.97" height="8.97" fill="#000"/>
<rect x="627.24" y="460.34" width="8.97" height="8.97" fill="#000"/>
<rect x="663.10" y="460.34" width="8.97" height="8.97" fill="#000"/>
<rect x="447.93" y="469.31" width="62.76" height="8.97" fill="#000"/>
<rect x="519.66" y="469.31" width="26.90" height="8.97" fill="#000"/>
<rect x="555.52" y="469.31" width="17.93" height="8.97" fill="#000"/>
<rect x="591.38" y="469.31" width="8.97" height="8.97" fill="#000"/>
<rect x="609.31" y="469.31" width="8.97" height="8.97" fill="#000"/>
<rect x="627.24" y="469.31" width="44.83" height="8.97" fill="#000"/>
<rect x="447.93" y="478.28" width="8.97" height="8.97" fill="#000"/>
<rect x="501.72" y="478.28" width="8.97" height="8.97" fill="#000"/>
<rect x="519.66" y="478.28" width="8.97" height="8.97" fill="#000"/>
<rect x="546.55" y="478.28" width="8.97" height="8.97" fill="#000"/>
<rect x="582.41" y="478.28" width="17.93" height="8.97" fill="#000"/>
<rect x="627.24" y="478.28" width="8.97" height="8.97" fill="#000"/>
<rect x="654.14" y="478.28" width="8.97" height="8.97" fill="#000"/>
<rect x="447.93" y="487.24" width="8.97" height="8.97" fill="#000"/>
<rect x="465.86" y="487.24" width="26.90" height="8.97" fill="#000"/>
<rect x="501.72" y="487.24" width="8.97" height="8.97" fill="#000"/>
<rect x="528.62" y="487.24" width="8.97" height="8.97" fill="#000"/>
<rect x="573.45" y="487.24" width="8.97" height="8.97" fill="#000"/>
<rect x="591.38" y="487.24" width="44.83" height="8.97" fill="#000"/>
<rect x="663.10" y="487.24" width="8.97" height="8.97" fill="#000"/>
<rect x="447.93" y="496.21" width="8.97" height="8.97" fill="#000"/>
<rect x="465.86" y="496.21" width="26.90" height="8.97" fill="#000"/>
<rect x="501.72" y="496.21" width="8.97" height="8.97" fill="#000"/>
<rect x="519.66" y="496.21" width="26.90" height="8.97" fill="#000"/>
<rect x="555.52" y="496.21" width="8.97" height="8.97" fill="#000"/>
<rect x="582.41" y="496.21" width="8.97" height="8.97" fill="#000"/>
<rect x="600.34" y="496.21" width="35.86" height="8.97" fill="#000"/>
<rect x="645.17" y="496.21" width="26.90" height="8.97" fill="#000"/>
<rect x="447.93" y="505.17" width="8.97" height="8.97" fill="#000"/>
<rect x="465.86" y="505.17" width="26.90" height="8.97" fill="#000"/>
<rect x="501.72" y="505.17" width="8.97" height="8.97" fill="#000"/>
<rect x="519.66" y="505.17" width="17.93" height="8.97" fill="#000"/>
<rect x="546.55" y="505.17" width="8.97" height="8.97" fill="#000"/>
<rect x="573.45" y="505.17" width="8.97" height="8.97" fill="#000"/>
<rect x="609.31" y="505.17" width="53.79" height="8.97" fill="#000"/>
<rect x="447.93" y="514.14" width="8.97" height="8.97" fill="#000"/>
<rect x="501.72" y="514.14" width="8.97" height="8.97" fill="#000"/>
<rect x="537.59" y="514.14" width="8.97" height="8.97" fill="#000"/>
<rect x="555.52" y="514.14" width="35.86" height="8.97" fill="#000"/>
<rect x="627.24" y="514.14" width="8.97" height="8.97" fill="#000"/>
<rect x="645.17" y="514.14" width="8.97" height="8.97" fill="#000"/>
<rect x="447.93" y="523.10" width="62.76" height="8.97" fill="#000"/>
<rect x="519.66" y="523.10" width="8.97" height="8.97" fill="#000"/>
<rect x="546.55" y="523.10" width="35.86" height="8.97" fill="#000"/>
<rect x="600.34" y="523.10" width="8.97" height="8.97" fill="#000"/>
<rect x="618.28" y="523.10" width="53.79" height="8.97" fill="#000"/>
<text x="240.0" y="578" fill="#5b6470" font-size="15" font-weight="400" text-anchor="middle">Network</text>
<text x="240.0" y="602" fill="#14161a" font-size="22" font-weight="700" text-anchor="middle">zeitspiegel</text>
<text x="560.0" y="578" fill="#5b6470" font-size="15" font-weight="400" text-anchor="middle">or type in any browser</text>
<text x="560.0" y="602" fill="#2f6db0" font-size="22" font-weight="700" text-anchor="middle">10.42.0.1</text>
<rect x="64" y="638" width="672" height="96" rx="14" fill="#fff4d6" stroke="#e0a900" stroke-width="2"/>
<path d="M 110 672 L 138 720 L 82 720 Z" fill="none" stroke="#e0a900" stroke-width="4" stroke-linejoin="round"/>
<line x1="110" y1="688" x2="110" y2="706" stroke="#e0a900" stroke-width="4" stroke-linecap="round"/>
<circle cx="110" cy="714" r="2.8" fill="#e0a900"/>
<text x="160" y="678" fill="#5a3d00" font-size="19" font-weight="700" text-anchor="start">Your phone will say “No internet connection”.</text>
<text x="160" y="706" fill="#5a3d00" font-size="18" font-weight="400">That’s expected — tap <tspan font-weight="700">“Stay connected”</tspan> (or “Keep trying” / “Yes”).</text>
<line x1="64" y1="770" x2="736" y2="770" stroke="#d7dbe0" stroke-width="2"/>
<text x="400.0" y="820" fill="#14161a" font-size="24" font-weight="700" text-anchor="middle">Dance now — watch yourself a few seconds later.</text>
<text x="400.0" y="856" fill="#5b6470" font-size="18" font-weight="400" text-anchor="middle">The camera shows you on a delay. Move, then look up.</text>
<circle cx="120" cy="906" r="6" fill="#2f6db0"/>
<text x="146" y="912" fill="#14161a" font-size="20" font-weight="700" text-anchor="start">Drag the slider</text>
<text x="146" y="938" fill="#5b6470" font-size="18" font-weight="400" text-anchor="start">to choose how many seconds late the mirror shows you.</text>
<circle cx="120" cy="970" r="6" fill="#2f6db0"/>
<text x="146" y="976" fill="#14161a" font-size="20" font-weight="700" text-anchor="start">Tap download</text>
<text x="146" y="1002" fill="#5b6470" font-size="18" font-weight="400" text-anchor="start">to save the last clip to your phone.</text>
<line x1="64" y1="1039" x2="736" y2="1039" stroke="#d7dbe0" stroke-width="2"/>
<text x="400.0" y="1075" fill="#14161a" font-size="19" font-weight="600" text-anchor="middle">No internet needed — everything stays in this room.</text>
<text x="400.0" y="1101" fill="#5b6470" font-size="17" font-weight="400" text-anchor="middle">Nothing is recorded unless you download a clip.</text>
</svg>