<svg xmlns="http://www.w3.org/2000/svg" viewBox="0 0 800 1131" font-family="Helvetica, Arial, sans-serif">
<rect width="800" height="1131" fill="#ffffff"/>
<rect x="20" y="20" width="760" height="1091" rx="22" fill="none" stroke="#d7dbe0" stroke-width="2"/>
<text x="400.0" y="112" fill="#14161a" font-size="58" font-weight="700" text-anchor="middle">Zeitspiegel</text>
<text x="400.0" y="150" fill="#2f6db0" font-size="20" font-weight="600" text-anchor="middle" letter-spacing="3">THE DELAYED DANCE MIRROR</text>
<text x="400.0" y="200" fill="#5b6470" font-size="24" font-weight="400" text-anchor="middle">Dance now — watch yourself a few seconds later.</text>
<line x1="64" y1="236" x2="736" y2="236" stroke="#d7dbe0" stroke-width="2"/>
<circle cx="100" cy="320" r="30" fill="#2f6db0"/><text x="100" y="320" fill="#fff" font-size="34" font-weight="700" text-anchor="middle" dominant-baseline="central">1</text>
<path d="M 166 322 A 34 34 0 0 1 234 322" fill="none" stroke="#2f6db0" stroke-width="6" stroke-linecap="round"/><path d="M 177 322 A 23 23 0 0 1 223 322" fill="none" stroke="#2f6db0" stroke-width="5" stroke-linecap="round"/><path d="M 188 322 A 12 12 0 0 1 212 322" fill="none" stroke="#2f6db0" stroke-width="4" stroke-linecap="round"/><circle cx="200" cy="324" r="4.5" fill="#2f6db0"/>
<text x="250" y="300" fill="#14161a" font-size="30" font-weight="700" text-anchor="start">Connect to the Wi-Fi</text>
<text x="250" y="338" fill="#5b6470" font-size="20" font-weight="400" text-anchor="start">Network</text>
<text x="360" y="338" fill="#14161a" font-size="22" font-weight="700" text-anchor="start">zeitspiegel</text>
<text x="250" y="370" fill="#5b6470" font-size="20" font-weight="400" text-anchor="start">No password — just connect.</text>
<rect x="600.0" y="266.0" width="120.0" height="120.0" fill="#ffffff"/>
<rect x="607.27" y="273.27" width="25.45" height="3.64" fill="#000"/>
<rect x="636.36" y="273.27" width="10.91" height="3.64" fill="#000"/>
<rect x="650.91" y="273.27" width="7.27" height="3.64" fill="#000"/>
<rect x="661.82" y="273.27" width="10.91" height="3.64" fill="#000"/>
<rect x="680.00" y="273.27" width="3.64" height="3.64" fill="#000"/>
<rect x="687.27" y="273.27" width="25.45" height="3.64" fill="#000"/>
<rect x="607.27" y="276.91" width="3.64" height="3.64" fill="#000"/>
<rect x="629.09" y="276.91" width="3.64" height="3.64" fill="#000"/>
<rect x="636.36" y="276.91" width="7.27" height="3.64" fill="#000"/>
<rect x="647.27" y="276.91" width="10.91" height="3.64" fill="#000"/>
<rect x="661.82" y="276.91" width="7.27" height="3.64" fill="#000"/>
<rect x="680.00" y="276.91" width="3.64" height="3.64" fill="#000"/>
<rect x="687.27" y="276.91" width="3.64" height="3.64" fill="#000"/>
<rect x="709.09" y="276.91" width="3.64" height="3.64" fill="#000"/>
<rect x="607.27" y="280.55" width="3.64" height="3.64" fill="#000"/>
<rect x="614.55" y="280.55" width="10.91" height="3.64" fill="#000"/>
<rect x="629.09" y="280.55" width="3.64" height="3.64" fill="#000"/>
<rect x="643.64" y="280.55" width="3.64" height="3.64" fill="#000"/>
<rect x="658.18" y="280.55" width="3.64" height="3.64" fill="#000"/>
<rect x="665.45" y="280.55" width="3.64" height="3.64" fill="#000"/>
<rect x="672.73" y="280.55" width="7.27" height="3.64" fill="#000"/>
<rect x="687.27" y="280.55" width="3.64" height="3.64" fill="#000"/>
<rect x="694.55" y="280.55" width="10.91" height="3.64" fill="#000"/>
<rect x="709.09" y="280.55" width="3.64" height="3.64" fill="#000"/>
<rect x="607.27" y="284.18" width="3.64" height="3.64" fill="#000"/>
<rect x="614.55" y="284.18" width="10.91" height="3.64" fill="#000"/>
<rect x="629.09" y="284.18" width="3.64" height="3.64" fill="#000"/>
<rect x="640.00" y="284.18" width="10.91" height="3.64" fill="#000"/>
<rect x="654.55" y="284.18" width="10.91" height="3.64" fill="#000"/>
<rect x="669.09" y="284.18" width="3.64" height="3.64" fill="#000"/>
<rect x="687.27" y="284.18" width="3.64" height="3.64" fill="#000"/>
<rect x="694.55" y="284.18" width="10.91" height="3.64" fill="#000"/>
<rect x="709.09" y="284.18" width="3.64" height="3.64" fill="#000"/>
<rect x="607.27" y="287.82" width="3.64" height="3.64" fill="#000"/>
<rect x="614.55" y="287.82" width="10.91" height="3.64" fill="#000"/>
<rect x="629.09" y="287.82" width="3.64" height="3.64" fill="#000"/>
<rect x="643.64" y="287.82" width="7.27" height="3.64" fill="#000"/>
<rect x="654.55" y="287.82" width="3.64" height="3.64" fill="#000"/>
<rect x="661.82" y="287.82" width="3.64" height="3.64" fill="#000"/>
<rect x="669.09" y="287.82" width="3.64" height="3.64" fill="#000"/>
<rect x="676.36" y="287.82" width="7.27" height="3.64" fill="#000"/>
<rect x="687.27" y="287.82" width="3.64" height="3.64" fill="#000"/>
<rect x="694.55" y="287.82" width="10.91" height="3.64" fill="#000"/>
<rect x="709.09" y="287.82" width="3.64" height="3.64" fill="#000"/>
<rect x="607.27" y="291.45" width="3.64" height="3.64" fill="#000"/>
<rect x="629.09" y="291.45" width="3.64" height="3.64" fill="#000"/>
<rect x="640.00" y="291.45" width="7.27" height="3.64" fill="#000"/>
<rect x="654.55" y="291.45" width="3.64" height="3.64" fill="#000"/>
<rect x="661.82" y="291.45" width="14.55" height="3.64" fill="#000"/>
<rect x="680.00" y="291.45" width="3.64" height="3.64" fill="#000"/>
<rect x="687.27" y="291.45" width="3.64" height="3.64" fill="#000"/>
<rect x="709.09" y="291.45" width="3.64" height="3.64" fill="#000"/>
<rect x="607.27" y="295.09" width="25.45" height="3.64" fill="#000"/>
<rect x="636.36" y="295.09" width="3.64" height="3.64" fill="#000"/>
<rect x="643.64" y="295.09" width="3.64" height="3.64" fill="#000"/>
<rect x="650.91" y="295.09" width="3.64" height="3.64" fill="#000"/>
<rect x="658.18" y="295.09" width="3.64" height="3.64" fill="#000"/>
<rect x="665.45" y="295.09" width="3.64" height="3.64" fill="#000"/>
<rect x="672.73" y="295.09" width="3.64" height="3.64" fill="#000"/>
<rect x="680.00" y="295.09" width="3.64" height="3.64" fill="#000"/>
<rect x="687.27" y="295.09" width="25.45" height="3.64" fill="#000"/>
<rect x="640.00" y="298.73" width="7.27" height="3.64" fill="#000"/>
<rect x="654.55" y="298.73" width="3.64" height="3.64" fill="#000"/>
<rect x="661.82" y="298.73" width="7.27" height="3.64" fill="#000"/>
<rect x="610.91" y="302.36" width="3.64" height="3.64" fill="#000"/>
<rect x="629.09" y="302.36" width="25.45" height="3.64" fill="#000"/>
<rect x="658.18" y="302.36" width="7.27" height="3.64" fill="#000"/>
<rect x="669.09" y="302.36" width="18.18" height="3.64" fill="#000"/>
<rect x="705.45" y="302.36" width="7.27" height="3.64" fill="#000"/>
<rect x="610.91" y="306.00" width="3.64" height="3.64" fill="#000"/>
<rect x="618.18" y="306.00" width="3.64" height="3.64" fill="#000"/>
<rect x="632.73" y="306.00" width="14.55" height="3.64" fill="#000"/>
<rect x="650.91" y="306.00" width="3.64" height="3.64" fill="#000"/>
<rect x="658.18" y="306.00" width="7.27" height="3.64" fill="#000"/>
<rect x="676.36" y="306.00" width="3.64" height="3.64" fill="#000"/>
<rect x="690.91" y="306.00" width="10.91" height="3.64" fill="#000"/>
<rect x="709.09" y="306.00" width="3.64" height="3.64" fill="#000"/>
<rect x="607.27" y="309.64" width="7.27" height="3.64" fill="#000"/>
<rect x="621.82" y="309.64" width="14.55" height="3.64" fill="#000"/>
<rect x="640.00" y="309.64" width="7.27" height="3.64" fill="#000"/>
<rect x="650.91" y="309.64" width="7.27" height="3.64" fill="#000"/>
<rect x="661.82" y="309.64" width="3.64" height="3.64" fill="#000"/>
<rect x="669.09" y="309.64" width="7.27" height="3.64" fill="#000"/>
<rect x="680.00" y="309.64" width="7.27" height="3.64" fill="#000"/>
<rect x="607.27" y="313.27" width="14.55" height="3.64" fill="#000"/>
<rect x="625.45" y="313.27" width="3.64" height="3.64" fill="#000"/>
<rect x="632.73" y="313.27" width="18.18" height="3.64" fill="#000"/>
<rect x="654.55" y="313.27" width="7.27" height="3.64" fill="#000"/>
<rect x="665.45" y="313.27" width="3.64" height="3.64" fill="#000"/>
<rect x="676.36" y="313.27" width="3.64" height="3.64" fill="#000"/>
<rect x="683.64" y="313.27" width="10.91" height="3.64" fill="#000"/>
<rect x="705.45" y="313.27" width="7.27" height="3.64" fill="#000"/>
<rect x="614.55" y="316.91" width="10.91" height="3.64" fill="#000"/>
<rect x="629.09" y="316.91" width="10.91" height="3.64" fill="#000"/>
<rect x="643.64" y="316.91" width="3.64" height="3.64" fill="#000"/>
<rect x="658.18" y="316.91" width="7.27" height="3.64" fill="#000"/>
<rect x="676.36" y="316.91" width="14.55" height="3.64" fill="#000"/>
<rect x="694.55" y="316.91" width="3.64" height="3.64" fill="#000"/>
<rect x="709.09" y="316.91" width="3.64" height="3.64" fill="#000"/>
<rect x="607.27" y="320.55" width="3.64" height="3.64" fill="#000"/>
<rect x="625.45" y="320.55" width="3.64" height="3.64" fill="#000"/>
<rect x="640.00" y="320.55" width="3.64" height="3.64" fill="#000"/>
<rect x="650.91" y="320.55" width="3.64" height="3.64" fill="#000"/>
<rect x="658.18" y="320.55" width="3.64" height="3.64" fill="#000"/>
<rect x="669.09" y="320.55" width="3.64" height="3.64" fill="#000"/>
<rect x="676.36" y="320.55" width="21.82" height="3.64" fill="#000"/>
<rect x="701.82" y="320.55" width="3.64" height="3.64" fill="#000"/>
<rect x="709.09" y="320.55" width="3.64" height="3.64" fill="#000"/>
<rect x="610.91" y="324.18" width="3.64" height="3.64" fill="#000"/>
<rect x="618.18" y="324.18" width="3.64" height="3.64" fill="#000"/>
<rect x="629.09" y="324.18" width="10.91" height="3.64" fill="#000"/>
<rect x="643.64" y="324.18" width="21.82" height="3.64" fill="#000"/>
<rect x="669.09" y="324.18" width="7.27" height="3.64" fill="#000"/>
<rect x="680.00" y="324.18" width="3.64" height="3.64" fill="#000"/>
<rect x="687.27" y="324.18" width="3.64" height="3.64" fill="#000"/>
<rect x="698.18" y="324.18" width="3.64" height="3.64" fill="#000"/>
<rect x="607.27" y="327.82" width="7.27" height="3.64" fill="#000"/>
<rect x="618.18" y="327.82" width="7.27" height="3.64" fill="#000"/>
<rect x="650.91" y="327.82" width="3.64" height="3.64" fill="#000"/>
<rect x="658.18" y="327.82" width="3.64" height="3.64" fill="#000"/>
<rect x="665.45" y="327.82" width="3.64" height="3.64" fill="#000"/>
<rect x="683.64" y="327.82" width="3.64" height="3.64" fill="#000"/>
<rect x="698.18" y="327.82" width="14.55" height="3.64" fill="#000"/>
<rect x="607.27" y="331.45" width="14.55" height="3.64" fill="#000"/>
<rect x="629.09" y="331.45" width="14.55" height="3.64" fill="#000"/>
<rect x="647.27" y="331.45" width="7.27" height="3.64" fill="#000"/>
<rect x="665.45" y="331.45" width="3.64" height="3.64" fill="#000"/>
<rect x="672.73" y="331.45" width="3.64" height="3.64" fill="#000"/>
<rect x="680.00" y="331.45" width="3.64" height="3.64" fill="#000"/>
<rect x="607.27" y="335.09" width="3.64" height="3.64" fill="#000"/>
<rect x="618.18" y="335.09" width="7.27" height="3.64" fill="#000"/>
<rect x="636.36" y="335.09" width="3.64" height="3.64" fill="#000"/>
<rect x="650.91" y="335.09" width="10.91" height="3.64" fill="#000"/>
<rect x="672.73" y="335.09" width="25.45" height="3.64" fill="#000"/>
<rect x="701.82" y="335.09" width="7.27" height="3.64" fill="#000"/>
<rect x="607.27" y="338.73" width="7.27" height="3.64" fill="#000"/>
<rect x="625.45" y="338.73" width="7.27" height="3.64" fill="#000"/>
<rect x="640.00" y="338.73" width="3.64" height="3.64" fill="#000"/>
<rect x="650.91" y="338.73" width="7.27" height="3.64" fill="#000"/>
<rect x="661.82" y="338.73" width="3.64" height="3.64" fill="#000"/>
<rect x="669.09" y="338.73" width="10.91" height="3.64" fill="#000"/>
<rect x="683.64" y="338.73" width="3.64" height="3.64" fill="#000"/>
<rect x="690.91" y="338.73" width="3.64" height="3.64" fill="#000"/>
<rect x="709.09" y="338.73" width="3.64" height="3.64" fill="#000"/>
<rect x="607.27" y="342.36" width="3.64" height="3.64" fill="#000"/>
<rect x="614.55" y="342.36" width="3.64" height="3.64" fill="#000"/>
<rect x="621.82" y="342.36" width="7.27" height="3.64" fill="#000"/>
<rect x="636.36" y="342.36" width="21.82" height="3.64" fill="#000"/>
<rect x="672.73" y="342.36" width="3.64" height="3.64" fill="#000"/>
<rect x="687.27" y="342.36" width="3.64" height="3.64" fill="#000"/>
<rect x="698.18" y="342.36" width="3.64" height="3.64" fill="#000"/>
<rect x="705.45" y="342.36" width="3.64" height="3.64" fill="#000"/>
<rect x="607.27" y="346.00" width="3.64" height="3.64" fill="#000"/>
<rect x="614.55" y="346.00" width="10.91" height="3.64" fill="#000"/>
<rect x="629.09" y="346.00" width="3.64" height="3.64" fill="#000"/>
<rect x="643.64" y="346.00" width="3.64" height="3.64" fill="#000"/>
<rect x="650.91" y="346.00" width="3.64" height="3.64" fill="#000"/>
<rect x="658.18" y="346.00" width="7.27" height="3.64" fill="#000"/>
<rect x="669.09" y="346.00" width="3.64" height="3.64" fill="#000"/>
<rect x="680.00" y="346.00" width="21.82" height="3.64" fill="#000"/>
<rect x="709.09" y="346.00" width="3.64" height="3.64" fill="#000"/>
<rect x="636.36" y="349.64" width="3.64" height="3.64" fill="#000"/>
<rect x="643.64" y="349.64" width="3.64" height="3.64" fill="#000"/>
<rect x="654.55" y="349.64" width="10.91" height="3.64" fill="#000"/>
<rect x="672.73" y="349.64" width="3.64" height="3.64" fill="#000"/>
<rect x="680.00" y="349.64" width="3.64" height="3.64" fill="#000"/>
<rect x="694.55" y="349.64" width="10.91" height="3.64" fill="#000"/>
<rect x="607.27" y="353.27" width="25.45" height="3.64" fill="#000"/>
<rect x="636.36" y="353.27" width="14.55" height="3.64" fill="#000"/>
<rect x="661.82" y="353.27" width="7.27" height="3.64" fill="#000"/>
<rect x="672.73" y="353.27" width="10.91" height="3.64" fill="#000"/>
<rect x="687.27" y="353.27" width="3.64" height="3.64" fill="#000"/>
<rect x="694.55" y="353.27" width="3.64" height="3.64" fill="#000"/>
<rect x="701.82" y="353.27" width="3.64" height="3.64" fill="#000"/>
<rect x="607.27" y="356.91" width="3.64" height="3.64" fill="#000"/>
<rect x="629.09" y="356.91" width="3.64" height="3.64" fill="#000"/>
<rect x="640.00" y="356.91" width="3.64" height="3.64" fill="#000"/>
<rect x="650.91" y="356.91" width="3.64" height="3.64" fill="#000"/>
<rect x="665.45" y="356.91" width="3.64" height="3.64" fill="#000"/>
<rect x="672.73" y="356.91" width="10.91" height="3.64" fill="#000"/>
<rect x="694.55" y="356.91" width="7.27" height="3.64" fill="#000"/>
<rect x="705.45" y="356.91" width="7.27" height="3.64" fill="#000"/>
<rect x="607.27" y="360.55" width="3.64" height="3.64" fill="#000"/>
<rect x="614.55" y="360.55" width="10.91" height="3.64" fill="#000"/>
<rect x="629.09" y="360.55" width="3.64" height="3.64" fill="#000"/>
<rect x="640.00" y="360.55" width="3.64" height="3.64" fill="#000"/>
<rect x="647.27" y="360.55" width="3.64" height="3.64" fill="#000"/>
<rect x="654.55" y="360.55" width="3.64" height="3.64" fill="#000"/>
<rect x="661.82" y="360.55" width="43.64" height="3.64" fill="#000"/>
<rect x="709.09" y="360.55" width="3.64" height="3.64" fill="#000"/>
<rect x="607.27" y="364.18" width="3.64" height="3.64" fill="#000"/>
<rect x="614.55" y="364.18" width="10.91" height="3.64" fill="#000"/>
<rect x="629.09" y="364.18" width="3.64" height="3.64" fill="#000"/>
<rect x="665.45" y="364.18" width="10.91" height="3.64" fill="#000"/>
<rect x="680.00" y="364.18" width="7.27" height="3.64" fill="#000"/>
<rect x="690.91" y="364.18" width="3.64" height="3.64" fill="#000"/>
<rect x="698.18" y="364.18" width="3.64" height="3.64" fill="#000"/>
<rect x="705.45" y="364.18" width="3.64" height="3.64" fill="#000"/>
<rect x="607.27" y="367.82" width="3.64" height="3.64" fill="#000"/>
<rect x="614.55" y="367.82" width="10.91" height="3.64" fill="#000"/>
<rect x="629.09" y="367.82" width="3.64" height="3.64" fill="#000"/>
<rect x="643.64" y="367.82" width="3.64" height="3.64" fill="#000"/>
<rect x="654.55" y="367.82" width="7.27" height="3.64" fill="#000"/>
<rect x="672.73" y="367.82" width="3.64" height="3.64" fill="#000"/>
<rect x="680.00" y="367.82" width="3.64" height="3.64" fill="#000"/>
<rect x="687.27" y="367.82" width="3.64" height="3.64" fill="#000"/>
<rect x="694.55" y="367.82" width="3.64" height="3.64" fill="#000"/>
<rect x="705.45" y="367.82" width="3.64" height="3.64" fill="#000"/>
<rect x="607.27" y="371.45" width="3.64" height="3.64" fill="#000"/>
<rect x="629.09" y="371.45" width="3.64" height="3.64" fill="#000"/>
<rect x="636.36" y="371.45" width="3.64" height="3.64" fill="#000"/>
<rect x="643.64" y="371.45" width="7.27" height="3.64" fill="#000"/>
<rect x="658.18" y="371.45" width="7.27" height="3.64" fill="#000"/>
<rect x="687.27" y="371.45" width="10.91" height="3.64" fill="#000"/>
<rect x="701.82" y="371.45" width="3.64" height="3.64" fill="#000"/>
<rect x="709.09" y="371.45" width="3.64" height="3.64" fill="#000"/>
<rect x="607.27" y="375.09" width="25.45" height="3.64" fill="#000"/>
<rect x="640.00" y="375.09" width="3.64" height="3.64" fill="#000"/>
<rect x="650.91" y="375.09" width="7.27" height="3.64" fill="#000"/>
<rect x="669.09" y="375.09" width="3.64" height="3.64" fill="#000"/>
<rect x="676.36" y="375.09" width="3.64" height="3.64" fill="#000"/>
<rect x="683.64" y="375.09" width="3.64" height="3.64" fill="#000"/>
<rect x="698.18" y="375.09" width="7.27" height="3.64" fill="#000"/>
<text x="660" y="404" fill="#5b6470" font-size="16" font-weight="400" text-anchor="middle">scan to join</text>
<circle cx="100" cy="466" r="30" fill="#2f6db0"/><text x="100" y="466" fill="#fff" font-size="34" font-weight="700" text-anchor="middle" dominant-baseline="central">2</text>
<rect x="180" y="434" width="40" height="68" rx="7" fill="none" stroke="#2f6db0" stroke-width="5"/><circle cx="200" cy="492" r="3.2" fill="#2f6db0"/>
<text x="250" y="446" fill="#14161a" font-size="30" font-weight="700" text-anchor="start">Scan to open the controls</text>
<text x="250" y="484" fill="#5b6470" font-size="20" font-weight="400" text-anchor="start">or type it into any browser:</text>
<text x="250" y="516" fill="#2f6db0" font-size="24" font-weight="700" text-anchor="start">zeitspiegel.local</text>
<rect x="275.0" y="546.0" width="250.0" height="250.0" fill="#ffffff"/>
<rect x="292.24" y="563.24" width="60.34" height="8.62" fill="#000"/>
<rect x="361.21" y="563.24" width="34.48" height="8.62" fill="#000"/>
<rect x="404.31" y="563.24" width="8.62" height="8.62" fill="#000"/>
<rect x="430.17" y="563.24" width="8.62" height="8.62" fill="#000"/>
<rect x="447.41" y="563.24" width="60.34" height="8.62" fill="#000"/>
<rect x="292.24" y="571.86" width="8.62" height="8.62" fill="#000"/>
<rect x="343.97" y="571.86" width="8.62" height="8.62" fill="#000"/>
<rect x="361.21" y="571.86" width="8.62" height="8.62" fill="#000"/>
<rect x="387.07" y="571.86" width="17.24" height="8.62" fill="#000"/>
<rect x="430.17" y="571.86" width="8.62" height="8.62" fill="#000"/>
<rect x="447.41" y="571.86" width="8.62" height="8.62" fill="#000"/>
<rect x="499.14" y="571.86" width="8.62" height="8.62" fill="#000"/>
<rect x="292.24" y="580.48" width="8.62" height="8.62" fill="#000"/>
<rect x="309.48" y="580.48" width="25.86" height="8.62" fill="#000"/>
<rect x="343.97" y="580.48" width="8.62" height="8.62" fill="#000"/>
<rect x="369.83" y="580.48" width="25.86" height="8.62" fill="#000"/>
<rect x="404.31" y="580.48" width="8.62" height="8.62" fill="#000"/>
<rect x="447.41" y="580.48" width="8.62" height="8.62" fill="#000"/>
<rect x="464.66" y="580.48" width="25.86" height="8.62" fill="#000"/>
<rect x="499.14" y="580.48" width="8.62" height="8.62" fill="#000"/>
<rect x="292.24" y="589.10" width="8.62" height="8.62" fill="#000"/>
<rect x="309.48" y="589.10" width="25.86" height="8.62" fill="#000"/>
<rect x="343.97" y="589.10" width="8.62" height="8.62" fill="#000"/>
<rect x="361.21" y="589.10" width="8.62" height="8.62" fill="#000"/>
<rect x="404.31" y="589.10" width="8.62" height="8.62" fill="#000"/>
<rect x="421.55" y="589.10" width="8.62" height="8.62" fill="#000"/>
<rect x="447.41" y="589.10" width="8.62" height="8.62" fill="#000"/>
<rect x="464.66" y="589.10" width="25.86" height="8.62" fill="#000"/>
<rect x="499.14" y="589.10" width="8.62" height="8.62" fill="#000"/>
<rect x="292.24" y="597.72" width="8.62" height="8.62" fill="#000"/>
<rect x="309.48" y="597.72" width="25.86" height="8.62" fill="#000"/>
<rect x="343.97" y="597.72" width="8.62" height="8.62" fill="#000"/>
<rect x="378.45" y="597.72" width="8.62" height="8.62" fill="#000"/>
<rect x="395.69" y="597.72" width="43.10" height="8.62" fill="#000"/>
<rect x="447.41" y="597.72" width="8.62" height="8.62" fill="#000"/>
<rect x="464.66" y="597.72" width="25.86" height="8.62" fill="#000"/>
<rect x="499.14" y="597.72" width="8.62" height="8.62" fill="#000"/>
<rect x="292.24" y="606.34" width="8.62" height="8.62" fill="#000"/>
<rect x="343.97" y="606.34" width="8.62" height="8.62" fill="#000"/>
<rect x="369.83" y="606.34" width="8.62" height="8.62" fill="#000"/>
<rect x="387.07" y="606.34" width="8.62" height="8.62" fill="#000"/>
<rect x="412.93" y="606.34" width="8.62" height="8.62" fill="#000"/>
<rect x="447.41" y="606.34" width="8.62" height="8.62" fill="#000"/>
<rect x="499.14" y="606.34" width="8.62" height="8.62" fill="#000"/>
<rect x="292.24" y="614.97" width="60.34" height="8.62" fill="#000"/>
<rect x="361.21" y="614.97" width="8.62" height="8.62" fill="#000"/>
<rect x="378.45" y="614.97" width="8.62" height="8.62" fill="#000"/>
<rect x="395.69" y="614.97" width="8.62" height="8.62" fill="#000"/>
<rect x="412.93" y="614.97" width="8.62" height="8.62" fill="#000"/>
<rect x="430.17" y="614.97" width="8.62" height="8.62" fill="#000"/>
<rect x="447.41" y="614.97" width="60.34" height="8.62" fill="#000"/>
<rect x="361.21" y="623.59" width="8.62" height="8.62" fill="#000"/>
<rect x="378.45" y="623.59" width="25.86" height="8.62" fill="#000"/>
<rect x="412.93" y="623.59" width="25.86" height="8.62" fill="#000"/>
<rect x="292.24" y="632.21" width="8.62" height="8.62" fill="#000"/>
<rect x="309.48" y="632.21" width="17.24" height="8.62" fill="#000"/>
<rect x="335.34" y="632.21" width="25.86" height="8.62" fill="#000"/>
<rect x="395.69" y="632.21" width="8.62" height="8.62" fill="#000"/>
<rect x="412.93" y="632.21" width="8.62" height="8.62" fill="#000"/>
<rect x="430.17" y="632.21" width="8.62" height="8.62" fill="#000"/>
<rect x="447.41" y="632.21" width="8.62" height="8.62" fill="#000"/>
<rect x="473.28" y="632.21" width="8.62" height="8.62" fill="#000"/>
<rect x="490.52" y="632.21" width="17.24" height="8.62" fill="#000"/>
<rect x="300.86" y="640.83" width="17.24" height="8.62" fill="#000"/>
<rect x="326.72" y="640.83" width="17.24" height="8.62" fill="#000"/>
<rect x="352.59" y="640.83" width="8.62" height="8.62" fill="#000"/>
<rect x="369.83" y="640.83" width="25.86" height="8.62" fill="#000"/>
<rect x="404.31" y="640.83" width="8.62" height="8.62" fill="#000"/>
<rect x="430.17" y="640.83" width="8.62" height="8.62" fill="#000"/>
<rect x="456.03" y="640.83" width="8.62" height="8.62" fill="#000"/>
<rect x="490.52" y="640.83" width="8.62" height="8.62" fill="#000"/>
<rect x="292.24" y="649.45" width="8.62" height="8.62" fill="#000"/>
<rect x="318.10" y="649.45" width="43.10" height="8.62" fill="#000"/>
<rect x="378.45" y="649.45" width="8.62" height="8.62" fill="#000"/>
<rect x="395.69" y="649.45" width="8.62" height="8.62" fill="#000"/>
<rect x="430.17" y="649.45" width="43.10" height="8.62" fill="#000"/>
<rect x="292.24" y="658.07" width="8.62" height="8.62" fill="#000"/>
<rect x="318.10" y="658.07" width="8.62" height="8.62" fill="#000"/>
<rect x="335.34" y="658.07" width="8.62" height="8.62" fill="#000"/>
<rect x="352.59" y="658.07" width="8.62" height="8.62" fill="#000"/>
<rect x="369.83" y="658.07" width="8.62" height="8.62" fill="#000"/>
<rect x="395.69" y="658.07" width="17.24" height="8.62" fill="#000"/>
<rect x="438.79" y="658.07" width="8.62" height="8.62" fill="#000"/>
<rect x="473.28" y="658.07" width="17.24" height="8.62" fill="#000"/>
<rect x="292.24" y="666.69" width="17.24" height="8.62" fill="#000"/>
<rect x="326.72" y="666.69" width="34.48" height="8.62" fill="#000"/>
<rect x="387.07" y="666.69" width="43.10" height="8.62" fill="#000"/>
<rect x="438.79" y="666.69" width="17.24" height="8.62" fill="#000"/>
<rect x="464.66" y="666.69" width="8.62" height="8.62" fill="#000"/>
<rect x="481.90" y="666.69" width="25.86" height="8.62" fill="#000"/>
<rect x="300.86" y="675.31" width="17.24" height="8.62" fill="#000"/>
<rect x="326.72" y="675.31" width="8.62" height="8.62" fill="#000"/>
<rect x="369.83" y="675.31" width="68.97" height="8.62" fill="#000"/>
<rect x="447.41" y="675.31" width="25.86" height="8.62" fill="#000"/>
<rect x="499.14" y="675.31" width="8.62" height="8.62" fill="#000"/>
<rect x="300.86" y="683.93" width="8.62" height="8.62" fill="#000"/>
<rect x="318.10" y="683.93" width="8.62" height="8.62" fill="#000"/>
<rect x="343.97" y="683.93" width="8.62" height="8.62" fill="#000"/>
<rect x="361.21" y="683.93" width="17.24" height="8.62" fill="#000"/>
<rect x="387.07" y="683.93" width="8.62" height="8.62" fill="#000"/>
<rect x="412.93" y="683.93" width="8.62" height="8.62" fill="#000"/>
<rect x="438.79" y="683.93" width="8.62" height="8.62" fill="#000"/>
<rect x="456.03" y="683.93" width="17.24" height="8.62" fill="#000"/>
<rect x="481.90" y="683.93" width="17.24" height="8.62" fill="#000"/>
<rect x="292.24" y="692.55" width="8.62" height="8.62" fill="#000"/>
<rect x="326.72" y="692.55" width="8.62" height="8.62" fill="#000"/>
<rect x="352.59" y="692.55" width="8.62" height="8.62" fill="#000"/>
<rect x="387.07" y="692.55" width="8.62" height="8.62" fill="#000"/>
<rect x="412.93" y="692.55" width="17.24" height="8.62" fill="#000"/>
<rect x="447.41" y="692.55" width="8.62" height="8.62" fill="#000"/>
<rect x="464.66" y="692.55" width="17.24" height="8.62" fill="#000"/>
<rect x="499.14" y="692.55" width="8.62" height="8.62" fill="#000"/>
<rect x="309.48" y="701.17" width="8.62" height="8.62" fill="#000"/>
<rect x="326.72" y="701.17" width="51.72" height="8.62" fill="#000"/>
<rect x="404.31" y="701.17" width="8.62" height="8.62" fill="#000"/>
<rect x="421.55" y="701.17" width="86.21" height="8.62" fill="#000"/>
<rect x="361.21" y="709.79" width="17.24" height="8.62" fill="#000"/>
<rect x="404.31" y="709.79" width="8.62" height="8.62" fill="#000"/>
<rect x="430.17" y="709.79" width="8.62" height="8.62" fill="#000"/>
<rect x="464.66" y="709.79" width="8.62" height="8.62" fill="#000"/>
<rect x="499.14" y="709.79" width="8.62" height="8.62" fill="#000"/>
<rect x="292.24" y="718.41" width="60.34" height="8.62" fill="#000"/>
<rect x="361.21" y="718.41" width="25.86" height="8.62" fill="#000"/>
<rect x="395.69" y="718.41" width="17.24" height="8.62" fill="#000"/>
<rect x="430.17" y="718.41" width="8.62" height="8.62" fill="#000"/>
<rect x="447.41" y="718.41" width="8.62" height="8.62" fill="#000"/>
<rect x="464.66" y="718.41" width="43.10" height="8.62" fill="#000"/>
<rect x="292.24" y="727.03" width="8.62" height="8.62" fill="#000"/>
<rect x="343.97" y="727.03" width="8.62" height="8.62" fill="#000"/>
<rect x="361.21" y="727.03" width="8.62" height="8.62" fill="#000"/>
<rect x="387.07" y="727.03" width="8.62" height="8.62" fill="#000"/>
<rect x="421.55" y="727.03" width="17.24" height="8.62" fill="#000"/>
<rect x="464.66" y="727.03" width="8.62" height="8.62" fill="#000"/>
<rect x="490.52" y="727.03" width="8.62" height="8.62" fill="#000"/>
<rect x="292.24" y="735.66" width="8.62" height="8.62" fill="#000"/>
<rect x="309.48" y="735.66" width="25.86" height="8.62" fill="#000"/>
<rect x="343.97" y="735.66" width="8.62" height="8.62" fill="#000"/>
<rect x="369.83" y="735.66" width="8.62" height="8.62" fill="#000"/>
<rect x="412.93" y="735.66" width="8.62" height="8.62" fill="#000"/>
<rect x="430.17" y="735.66" width="43.10" height="8.62" fill="#000"/>
<rect x="499.14" y="735.66" width="8.62" height="8.62" fill="#000"/>
<rect x="292.24" y="744.28" width="8.62" height="8.62" fill="#000"/>
<rect x="309.48" y="744.28" width="25.86" height="8.62" fill="#000"/>
<rect x="343.97" y="744.28" width="8.62" height="8.62" fill="#000"/>
<rect x="361.21" y="744.28" width="25.86" height="8.62" fill="#000"/>
<rect x="395.69" y="744.28" width="8.62" height="8.62" fill="#000"/>
<rect x="421.55" y="744.28" width="8.62" height="8.62" fill="#000"/>
<rect x="438.79" y="744.28" width="34.48" height="8.62" fill="#000"/>
<rect x="481.90" y="744.28" width="25.86" height="8.62" fill="#000"/>
<rect x="292.24" y="752.90" width="8.62" height="8.62" fill="#000"/>
<rect x="309.48" y="752.90" width="25.86" height="8.62" fill="#000"/>
<rect x="343.97" y="752.90" width="8.62" height="8.62" fill="#000"/>
<rect x="361.21" y="752.90" width="17.24" height="8.62" fill="#000"/>
<rect x="387.07" y="752.90" width="8.62" height="8.62" fill="#000"/>
<rect x="412.93" y="752.90" width="8.62" height="8.62" fill="#000"/>
<rect x="447.41" y="752.90" width="51.72" height="8.62" fill="#000"/>
<rect x="292.24" y="761.52" width="8.62" height="8.62" fill="#000"/>
<rect x="343.97" y="761.52" width="8.62" height="8.62" fill="#000"/>
<rect x="378.45" y="761.52" width="8.62" height="8.62" fill="#000"/>
<rect x="395.69" y="761.52" width="34.48" height="8.62" fill="#000"/>
<rect x="464.66" y="761.52" width="8.62" height="8.62" fill="#000"/>
<rect x="481.90" y="761.52" width="8.62" height="8.62" fill="#000"/>
<rect x="292.24" y="770.14" width="60.34" height="8.62" fill="#000"/>
<rect x="361.21" y="770.14" width="8.62" height="8.62" fill="#000"/>
<rect x="387.07" y="770.14" width="34.48" height="8.62" fill="#000"/>
<rect x="438.79" y="770.14" width="8.62" height="8.62" fill="#000"/>
<rect x="456.03" y="770.14" width="51.72" height="8.62" fill="#000"/>
<text x="400.0" y="824" fill="#5b6470" font-size="18" font-weight="400" text-anchor="middle">point your camera here</text>
<circle cx="100" cy="900" r="30" fill="#2f6db0"/><text x="100" y="900" fill="#fff" font-size="34" font-weight="700" text-anchor="middle" dominant-baseline="central">3</text>
<line x1="164" y1="876" x2="216" y2="876" stroke="#2f6db0" stroke-width="5" stroke-linecap="round"/><circle cx="174" cy="876" r="7" fill="#fff" stroke="#2f6db0" stroke-width="5"/><line x1="164" y1="896" x2="216" y2="896" stroke="#2f6db0" stroke-width="5" stroke-linecap="round"/><circle cx="190" cy="896" r="7" fill="#fff" stroke="#2f6db0" stroke-width="5"/><line x1="164" y1="916" x2="216" y2="916" stroke="#2f6db0" stroke-width="5" stroke-linecap="round"/><circle cx="206" cy="916" r="7" fill="#fff" stroke="#2f6db0" stroke-width="5"/>
<line x1="250" y1="870" x2="250" y2="906" stroke="#2f6db0" stroke-width="5" stroke-linecap="round"/><path d="M 236 892 L 250 908 L 264 892" fill="none" stroke="#2f6db0" stroke-width="5" stroke-linecap="round" stroke-linejoin="round"/><line x1="228" y1="922" x2="272" y2="922" stroke="#2f6db0" stroke-width="5" stroke-linecap="round"/>
<text x="300" y="880" fill="#14161a" font-size="30" font-weight="700" text-anchor="start">Set the delay · save clips</text>
<text x="300" y="918" fill="#5b6470" font-size="20" font-weight="400" text-anchor="start">Drag the slider to choose how many seconds</text>
<text x="300" y="944" fill="#5b6470" font-size="20" font-weight="400" text-anchor="start">late the mirror shows you.</text>
<text x="300" y="976" fill="#5b6470" font-size="20" font-weight="400" text-anchor="start">Download the last clip to keep it.</text>
<line x1="64" y1="1039" x2="736" y2="1039" stroke="#d7dbe0" stroke-width="2"/>
<text x="400.0" y="1075" fill="#14161a" font-size="20" font-weight="600" text-anchor="middle">No internet needed — everything stays in this room.</text>
<text x="400.0" y="1101" fill="#5b6470" font-size="18" font-weight="400" text-anchor="middle">Nothing is recorded unless you download a clip.</text>
</svg>